<mxfile host="www.draw.io" modified="2019-11-07T14:02:36.294Z" agent="Mozilla/5.0 (Macintosh; Intel Mac OS X 10_14_0) AppleWebKit/537.36 (KHTML, like Gecko) Chrome/76.0.3809.100 Safari/537.36" etag="OP8YMSG-7UbwvJfhdopG" version="12.2.0" type="github" pages="1">
  <diagram id="-4tFkpQDlDnXBzuQYAsi" name="第 1 页">
    <mxGraphModel dx="1172" dy="733" grid="1" gridSize="10" guides="1" tooltips="1" connect="1" arrows="1" fold="1" page="1" pageScale="1" pageWidth="827" pageHeight="1169" math="0" shadow="0">
      <root>
        <mxCell id="0"/>
        <mxCell id="1" parent="0"/>
        <mxCell id="XFlIhYwUr6LzD5tFLWlj-9" value="&lt;span style=&quot;font-size: 14px&quot;&gt;回合表演Notify&lt;/span&gt;" style="rounded=1;whiteSpace=wrap;html=1;fillColor=#fff2cc;strokeColor=#d6b656;" vertex="1" parent="1">
          <mxGeometry x="40" y="490" width="160" height="30" as="geometry"/>
        </mxCell>
        <mxCell id="XFlIhYwUr6LzD5tFLWlj-10" value="&lt;span style=&quot;font-size: 14px&quot;&gt;战斗结束Notify&lt;/span&gt;" style="rounded=1;whiteSpace=wrap;html=1;fillColor=#f8cecc;strokeColor=#b85450;" vertex="1" parent="1">
          <mxGeometry x="40" y="566" width="160" height="30" as="geometry"/>
        </mxCell>
        <mxCell id="XFlIhYwUr6LzD5tFLWlj-21" value="" style="shape=curlyBracket;whiteSpace=wrap;html=1;rounded=1;rotation=180;" vertex="1" parent="1">
          <mxGeometry x="210" y="496" width="10" height="101" as="geometry"/>
        </mxCell>
        <mxCell id="XFlIhYwUr6LzD5tFLWlj-22" value="第一场战斗" style="text;html=1;strokeColor=none;fillColor=none;align=left;verticalAlign=middle;whiteSpace=wrap;rounded=0;" vertex="1" parent="1">
          <mxGeometry x="230" y="536.5" width="100" height="20" as="geometry"/>
        </mxCell>
        <mxCell id="XFlIhYwUr6LzD5tFLWlj-23" value="&lt;span style=&quot;font-size: 14px&quot;&gt;表演结束Req&lt;/span&gt;" style="rounded=1;whiteSpace=wrap;html=1;fillColor=#f5f5f5;strokeColor=#666666;fontColor=#333333;" vertex="1" parent="1">
          <mxGeometry x="40" y="527" width="160" height="30" as="geometry"/>
        </mxCell>
        <mxCell id="XFlIhYwUr6LzD5tFLWlj-25" value="&lt;font style=&quot;font-size: 14px&quot;&gt;初始战场包Notify&lt;/font&gt;" style="rounded=1;whiteSpace=wrap;html=1;fillColor=#d5e8d4;strokeColor=#82b366;" vertex="1" parent="1">
          <mxGeometry x="40" y="607" width="160" height="30" as="geometry"/>
        </mxCell>
        <mxCell id="XFlIhYwUr6LzD5tFLWlj-26" value="" style="shape=curlyBracket;whiteSpace=wrap;html=1;rounded=1;rotation=180;" vertex="1" parent="1">
          <mxGeometry x="210" y="607" width="10" height="31" as="geometry"/>
        </mxCell>
        <mxCell id="XFlIhYwUr6LzD5tFLWlj-27" value="第二场战斗" style="text;html=1;strokeColor=none;fillColor=none;align=left;verticalAlign=middle;whiteSpace=wrap;rounded=0;" vertex="1" parent="1">
          <mxGeometry x="230" y="612" width="100" height="20" as="geometry"/>
        </mxCell>
        <mxCell id="XFlIhYwUr6LzD5tFLWlj-36" value="战斗协议缓存队列" style="text;html=1;strokeColor=none;fillColor=none;align=center;verticalAlign=middle;whiteSpace=wrap;rounded=0;" vertex="1" parent="1">
          <mxGeometry x="28" y="654" width="190" height="20" as="geometry"/>
        </mxCell>
        <mxCell id="XFlIhYwUr6LzD5tFLWlj-37" value="" style="endArrow=none;html=1;" edge="1" parent="1">
          <mxGeometry width="50" height="50" relative="1" as="geometry">
            <mxPoint x="40" y="650" as="sourcePoint"/>
            <mxPoint x="200" y="650" as="targetPoint"/>
          </mxGeometry>
        </mxCell>
      </root>
    </mxGraphModel>
  </diagram>
</mxfile>
